<?xml version="1.0" encoding="UTF-8"?>
<svg id="_레이어_2" data-name="레이어 2" xmlns="http://www.w3.org/2000/svg" viewBox="0 0 3.7 1.88">
  <defs>
    <style>
      .cls-1 {
        fill: #231815;
      }
    </style>
  </defs>
  <g id="_레이어_1-2" data-name="레이어 1">
    <g>
      <path class="cls-1" d="M1.47.25c-.15,0-.25.12-.25.27s.1.27.25.27.25-.12.25-.27-.1-.27-.25-.27ZM1.47,1.04c-.28,0-.52-.22-.52-.52S1.18,0,1.47,0s.52.22.52.52-.23.52-.52.52Z"/>
      <path class="cls-1" d="M2.57.73s-.04.07-.1.07c-.14,0-.22-.09-.22-.09l-.15.2s.12.14.37.14c.2,0,.37-.12.37-.31,0-.3-.47-.32-.47-.42,0-.04.05-.07.12-.07.1,0,.15.05.15.05l.14-.19S2.66,0,2.47,0c-.18,0-.35.14-.35.31,0,.3.44.31.44.42Z"/>
      <path class="cls-1" d="M.68.47c.04-.06.06-.11.06-.17,0-.15-.12-.27-.27-.27h-.47v.99h.51c.17,0,.3-.14.3-.3,0-.1-.05-.19-.14-.24ZM.25.24h.15s.09.04.09.09-.04.09-.09.09h-.15s0-.17,0-.17ZM.46.79h-.2s0-.18,0-.18h.2c.05,0,.09.04.09.09s-.04.09-.09.09Z"/>
      <path class="cls-1" d="M3.43.73s-.04.07-.1.07c-.14,0-.22-.09-.22-.09l-.15.2s.12.14.37.14c.2,0,.37-.12.37-.31,0-.3-.47-.32-.47-.42,0-.04.05-.07.12-.07.1,0,.15.05.15.05l.14-.19S3.53,0,3.33,0c-.18,0-.35.14-.35.31,0,.3.44.31.44.42Z"/>
      <g>
        <path class="cls-1" d="M1.29,1.88c-.1,0-.19-.08-.19-.19s.09-.19.19-.19c.05,0,.09.02.12.04l-.06.07s-.03-.02-.06-.02c-.05,0-.09.05-.09.1s.04.1.09.1c.04,0,.06-.01.07-.02v-.05h-.08s0-.08,0-.08h.16s0,.17,0,.17c-.02.02-.07.06-.15.06Z"/>
        <path class="cls-1" d="M1.71,1.88c-.1,0-.19-.08-.19-.19s.09-.19.19-.19.19.08.19.19-.09.19-.19.19ZM1.71,1.79c.05,0,.09-.05.09-.1s-.04-.1-.09-.1-.09.05-.09.1.04.1.09.1Z"/>
        <path class="cls-1" d="M2.11,1.78h.13s0,.09,0,.09h-.23s0-.36,0-.36h.1s0,.28,0,.28Z"/>
        <path class="cls-1" d="M2.56,1.59h-.14v.06h.13s0,.08,0,.08h-.13v.14s-.1,0-.1,0v-.36s.24,0,.24,0v.08Z"/>
      </g>
    </g>
  </g>
</svg>